<svg width="41" height="40" viewBox="0 0 41 40" fill="none" xmlns="http://www.w3.org/2000/svg">
    <g clip-path="url(#clip0_470_3343)">
        <rect x="0.5" width="40" height="40" rx="20" fill="white" />
        <path
            d="M65.069 70.6741H-27.4123C-28.1309 70.682 -28.8432 70.5322 -29.5042 70.2342C-30.1653 69.9362 -30.7607 69.4965 -31.2528 68.9428C-31.745 68.3891 -32.1232 67.7335 -32.3635 67.0174C-32.6039 66.3013 -32.7012 65.5403 -32.6493 64.7824L-29.1214 2.892C-29.0104 1.30631 -28.3419 -0.17796 -27.2476 -1.26845C-26.1532 -2.35893 -24.7124 -2.97657 -23.2088 -2.9997H69.2494C69.968 -3.0076 70.6803 -2.85782 71.3413 -2.55983C72.0024 -2.26183 72.5978 -1.82209 73.09 -1.2684C73.5821 -0.714717 73.9603 -0.0591121 74.2007 0.656991C74.441 1.37309 74.5383 2.13412 74.4864 2.892L70.9527 64.8068C70.838 66.3835 70.1716 67.8583 69.0836 68.9433C67.9957 70.0282 66.5643 70.6454 65.069 70.6741Z"
            fill="#6B9AFF" />
        <path opacity="0.1"
            d="M60.495 47.2765H8.70339C8.30068 47.2808 7.90147 47.2014 7.53095 47.0436C7.16043 46.8858 6.82665 46.6529 6.55068 46.3595C6.27471 46.0662 6.06254 45.7189 5.92756 45.3394C5.79258 44.96 5.73773 44.5567 5.76646 44.155L7.74557 11.3698C7.80751 10.5296 8.18189 9.74318 8.79494 9.16538C9.40798 8.58758 10.2152 8.26036 11.0576 8.24822H62.8491C63.2531 8.23958 63.6544 8.31589 64.027 8.47221C64.3996 8.62852 64.7352 8.86136 65.012 9.15565C65.2889 9.44993 65.5009 9.79908 65.6342 10.1805C65.7676 10.5619 65.8193 10.9671 65.7861 11.3698L63.807 44.155C63.745 44.9951 63.3706 45.7816 62.7576 46.3594C62.1445 46.9372 61.3373 47.2644 60.495 47.2765Z"
            fill="white" />
        <path opacity="0.1"
            d="M32.7874 61.4188H-19.0099C-19.4121 61.4222 -19.8107 61.3423 -20.1806 61.1841C-20.5504 61.0259 -20.8835 60.7928 -21.1588 60.4996C-21.4342 60.2064 -21.6458 59.8593 -21.7804 59.4803C-21.9151 59.1012 -21.9698 58.6984 -21.9411 58.2972L-19.962 25.512C-19.9001 24.6728 -19.5265 23.8872 -18.9147 23.3095C-18.3029 22.7319 -17.4971 22.404 -16.6557 22.3904H35.1416C35.5451 22.3826 35.9457 22.4595 36.3176 22.6162C36.6895 22.7729 37.0244 23.0059 37.3007 23.3C37.5769 23.5942 37.7884 23.9431 37.9214 24.3241C38.0544 24.7051 38.1059 25.1098 38.0728 25.512L36.0937 58.2972C36.0318 59.1363 35.6582 59.922 35.0464 60.4997C34.4346 61.0773 33.6288 61.4052 32.7874 61.4188Z"
            fill="white" />
        <path
            d="M14.2542 36.0769C13.8618 36.9078 13.5041 37.6175 13.1002 38.3849C12.6963 39.1523 12.2924 39.8447 11.8769 40.566C11.0287 42.0027 10.1459 43.451 9.19966 44.8012C8.72267 45.4936 8.23414 46.1802 7.73407 46.8611C7.209 47.5304 6.71279 48.2112 6.1531 48.8633C5.06128 50.2146 3.88368 51.4943 2.62761 52.6945C2.31026 53.0061 1.96407 53.2715 1.62941 53.6004C1.29737 53.9119 0.946671 54.2028 0.579267 54.4717L-0.528583 55.3083L-0.869011 55.5449C-1.01965 55.6404 -1.1757 55.7271 -1.33638 55.8046C-1.65324 55.9566 -1.98612 56.0728 -2.32882 56.1508C-3.0061 56.309 -3.71012 56.3145 -4.38977 56.1668C-5.06943 56.0191 -5.70768 55.7219 -6.25819 55.2968C-6.53127 55.0814 -6.78077 54.8377 -7.00253 54.5698L-7.15831 54.3621L-7.23333 54.2582L-7.26217 54.212L-7.36604 54.0274L-7.78148 53.2773C-7.90842 53.035 -7.99497 52.8042 -8.09883 52.5676C-8.46232 51.697 -8.75937 50.8 -8.98741 49.8845C-9.38909 48.2162 -9.67061 46.5213 -9.82983 44.8127C-9.99851 43.1488 -10.0717 41.4766 -10.0491 39.8043C-10.0369 39.3299 -9.8555 38.8754 -9.53774 38.5229C-9.21997 38.1703 -8.78671 37.9429 -8.31607 37.8817C-7.84542 37.8204 -7.36837 37.9293 -6.97094 38.1887C-6.57351 38.4482 -6.28186 38.8411 -6.14856 39.2966V39.3658C-5.38393 42.3066 -4.43776 45.1971 -3.31549 48.0208C-3.05866 48.6182 -2.7598 49.1967 -2.42114 49.7518C-2.34613 49.8672 -2.27112 50.0057 -2.19611 50.1038L-1.97684 50.3692L-1.92491 50.4385L-1.95378 50.3923L-2.01724 50.3058C-2.10758 50.1875 -2.21224 50.0809 -2.32882 49.9884C-2.55909 49.8026 -2.82676 49.6688 -3.11353 49.596C-3.40078 49.5353 -3.69756 49.5353 -3.98481 49.596C-4.13407 49.6275 -4.27926 49.6759 -4.41756 49.7403C-4.49257 49.7403 -4.55605 49.8153 -4.62529 49.8499C-4.69453 49.8845 -4.79838 49.9711 -4.72337 49.9076L-4.00212 49.2037C-3.75978 48.9844 -3.52322 48.719 -3.28664 48.4651C-3.05007 48.2112 -2.80773 47.9631 -2.57693 47.6919C-0.674627 45.4104 1.05719 42.992 2.60453 40.4563C3.39502 39.1696 4.17397 37.8598 4.91253 36.5327L6.02615 34.5363L7.08206 32.5861L7.13976 32.4822C7.64054 31.5858 8.46828 30.9176 9.45011 30.617C10.4319 30.3165 11.4919 30.4069 12.4086 30.8693C13.3254 31.3318 14.028 32.1306 14.3698 33.0988C14.7115 34.0671 14.666 35.1299 14.2426 36.0654L14.2542 36.0769Z"
            fill="#263238" />
        <path
            d="M8.20146 33.4918C8.43057 32.7378 8.86306 32.0616 9.45141 31.5373C10.0398 31.0131 10.7612 30.6612 11.5365 30.5202C12.6567 30.2727 13.7921 30.0992 14.9351 30.0009C18.3766 29.8666 21.823 29.9283 25.2576 30.1856C27.0578 30.3067 28.8985 30.5606 30.3641 30.803H30.416C31.1921 30.9317 31.8856 31.363 32.3442 32.0023C32.8028 32.6415 32.9892 33.4366 32.8625 34.213C32.1412 38.379 30.0236 45.6261 29.7928 52.4636C29.487 61.4417 29.6255 66.6116 29.4697 68.7754L6.36083 68.3311C4.75099 46.3878 6.75319 38.4598 8.20146 33.4918Z"
            fill="white" />
        <path
            d="M31.0333 30.4626H30.9583C29.4119 30.2088 27.4963 29.9376 25.5749 29.8106L24.5478 29.7529C23.5381 33.9304 17.5199 40.9583 15.6966 51.6097C14.9927 42.7066 14.4503 33.3996 15.4831 29.7702C13.8499 29.8199 12.2204 29.9566 10.6017 30.1799C9.74555 30.3736 8.956 30.7906 8.31342 31.3886C7.67084 31.9866 7.19817 32.7442 6.94352 33.5842C5.5241 37.7617 2.81218 47.1206 4.47971 70.1314H30.162C30.3293 67.8234 29.7293 62.9766 30.6582 55.516C31.5526 48.292 32.8393 38.4599 33.5952 34.0689C33.7307 33.2513 33.5374 32.4134 33.0574 31.7378C32.5775 31.0622 31.8499 30.6038 31.0333 30.4626Z"
            fill="#263238" />
        <path opacity="0.3"
            d="M30.1275 39.5966C29.1754 43.9125 29.6832 49.8903 30.7045 55.3429C31.4604 49.221 32.4932 41.2757 33.2491 36.3596C32.1931 35.6557 30.8834 36.1519 30.1275 39.5966Z"
            fill="black" />
        <path
            d="M15.4254 29.9722C18.42 29.3144 18.9393 27.468 18.7258 25.4255C18.6732 24.9152 18.5903 24.4084 18.4777 23.9079L22.2167 20.8498L24.969 18.6111C24.2189 21.9231 23.3938 27.9643 25.6556 30.2203C25.6556 30.2203 23.8092 33.2496 18.6739 32.8803C14.3348 32.5687 15.4254 29.9722 15.4254 29.9722Z"
            fill="#FFC3BD" />
        <path d="M19.978 32.1187L19.1471 32.9034L21.8013 33.9016L21.4551 32.8918L19.978 32.1187Z"
            fill="#E0E0E0" />
        <path
            d="M22.0091 35.3095C22.0091 35.3095 20.9647 32.6726 19.978 32.1129C21.9186 31.6502 23.6962 30.6666 25.1191 29.2683L26.6943 29.8972C26.6943 29.8972 27.1905 32.9553 22.0091 35.3095Z"
            fill="#F5F5F5" />
        <path d="M18.524 31.9109L19.1472 32.9033L16.3545 33.1457L16.9142 32.2629L18.524 31.9109Z"
            fill="#E0E0E0" />
        <path
            d="M14.9524 34.5651C15.9757 33.475 17.1851 32.5762 18.524 31.9109C17.0065 31.4608 16.9142 29.3721 16.9142 29.3721L15.4428 29.6548C15.4428 29.6548 12.7425 32.2802 14.9524 34.5651Z"
            fill="#F5F5F5" />
        <path opacity="0.2"
            d="M18.4779 23.9022C18.5901 24.4047 18.6729 24.9133 18.726 25.4255C20.1224 25.1716 21.9918 23.6945 22.188 22.2808C22.2543 21.8068 22.2679 21.3269 22.2284 20.8499L18.4779 23.9022Z"
            fill="black" />
        <path
            d="M13.9367 8.80199C12.598 10.4464 12.725 16.3953 15.5581 16.4646C18.3911 16.5338 16.3716 5.80158 13.9367 8.80199Z"
            fill="#263238" />
        <path
            d="M26.1404 13.1297C25.8577 17.636 25.9154 20.2845 23.642 22.6156C20.2261 26.118 14.6869 24.1042 13.6195 19.6209C12.6674 15.5819 13.2906 8.89449 17.6931 7.0654C18.6545 6.65399 19.7058 6.49769 20.7453 6.61159C21.7848 6.7255 22.7773 7.10577 23.6267 7.71561C24.4762 8.32544 25.1539 9.1442 25.5943 10.0927C26.0346 11.0411 26.2227 12.0872 26.1404 13.1297Z"
            fill="#FFC3BD" />
        <path
            d="M23.9247 9.37897C21.0916 12.189 24.7729 14.2489 23.3477 15.7606C26.0192 17.1569 25.0383 18.184 25.0383 18.184C24.7616 18.9523 24.7616 19.793 25.0383 20.5612C28.0502 19.7881 33.6414 9.78287 27.5367 8.24805C23.8843 9.87519 23.9247 9.37897 23.9247 9.37897Z"
            fill="#263238" />
        <path
            d="M25.0845 11.3985C22.4014 11.814 19.026 10.533 16.9315 9.44827C14.837 8.36351 14.5311 10.4119 15.3043 11.035C13.9599 11.0812 12.2578 10.0195 12.679 7.64802C13.0656 5.48427 15.8986 3.43592 19.9319 5.26501C22.788 6.55749 26.3077 4.85534 27.681 6.34977C29.0543 7.8442 26.8732 11.1158 25.0845 11.3985Z"
            fill="#263238" />
        <path
            d="M26.9193 8.46182C28.7196 8.22524 28.7946 7.08855 28.2926 5.0979C30.2371 7.86173 29.4466 8.70992 28.2926 9.37924C27.0059 8.94649 26.9193 8.46182 26.9193 8.46182Z"
            fill="#263238" />
        <path
            d="M27.3521 16.5857C26.9531 17.4672 26.2565 18.1801 25.3846 18.5995C24.2709 19.1015 23.7055 18.0744 24.0055 16.8685C24.2767 15.7779 25.1595 14.2085 26.3135 14.22C27.4675 14.2316 27.8541 15.4721 27.3521 16.5857Z"
            fill="#FFC3BD" />
        <path
            d="M19.1068 14.4914C19.1068 14.8549 18.9106 15.155 18.6741 15.1608C18.4375 15.1665 18.2644 14.8665 18.2644 14.4914C18.2644 14.1164 18.4606 13.8279 18.6972 13.8279C18.9337 13.8279 19.1068 14.1222 19.1068 14.4914Z"
            fill="#263238" />
        <path
            d="M14.9754 14.5259C14.9754 14.8952 14.7792 15.1895 14.5369 15.1953C14.2945 15.201 14.1041 14.901 14.1099 14.5317C14.1156 14.1624 14.3003 13.8682 14.5426 13.8682C14.785 13.8682 14.9754 14.1624 14.9754 14.5259Z"
            fill="#263238" />
        <path
            d="M16.5334 14.6528C16.1019 15.7766 15.5196 16.8365 14.8024 17.8033C15.0509 17.9779 15.3343 18.0966 15.6331 18.1514C15.9319 18.2062 16.239 18.1957 16.5334 18.1206V14.6528Z"
            fill="#ED847E" />
        <path
            d="M17.9874 19.1073C18.4063 19.0603 18.8108 18.9269 19.1754 18.7153C19.5399 18.5037 19.8565 18.2187 20.105 17.8782C20.1203 17.8545 20.1256 17.8257 20.1196 17.7981C20.1137 17.7705 20.097 17.7464 20.0733 17.7311C20.0496 17.7158 20.0207 17.7106 19.9931 17.7165C19.9656 17.7225 19.9414 17.7391 19.9261 17.7628C19.6485 18.1256 19.2901 18.4188 18.8795 18.6191C18.4689 18.8194 18.0173 18.9213 17.5604 18.9168C17.5463 18.9168 17.5323 18.9197 17.5193 18.9253C17.5063 18.9308 17.4946 18.939 17.4849 18.9493C17.4752 18.9595 17.4676 18.9717 17.4628 18.985C17.4579 18.9982 17.4558 19.0124 17.4566 19.0265C17.4566 19.0406 17.4594 19.0546 17.465 19.0676C17.4706 19.0806 17.4788 19.0923 17.489 19.102C17.4993 19.1118 17.5114 19.1193 17.5247 19.1241C17.538 19.129 17.5521 19.1311 17.5662 19.1303C17.7162 19.1073 17.8547 19.1073 17.9874 19.1073Z"
            fill="#263238" />
        <path
            d="M21.109 13.0315C21.1453 13.0294 21.1799 13.0152 21.2071 12.9911C21.2302 12.9746 21.2496 12.9535 21.2642 12.9292C21.2789 12.9049 21.2884 12.8779 21.2922 12.8498C21.296 12.8217 21.2939 12.7931 21.2863 12.7658C21.2786 12.7385 21.2654 12.713 21.2475 12.691C21.0494 12.4178 20.7891 12.1957 20.488 12.0432C20.187 11.8907 19.8539 11.8121 19.5165 11.814C19.4886 11.8161 19.4615 11.8239 19.4367 11.8368C19.4119 11.8496 19.39 11.8674 19.3722 11.8889C19.3544 11.9105 19.3412 11.9354 19.3332 11.9622C19.3253 11.9889 19.3229 12.017 19.3261 12.0448C19.3319 12.1024 19.3598 12.1556 19.4038 12.1932C19.4479 12.2308 19.5048 12.25 19.5626 12.2467C19.8306 12.2442 20.0951 12.307 20.3334 12.4297C20.5717 12.5523 20.7765 12.7311 20.9301 12.9507C20.9513 12.9775 20.9786 12.9988 21.0097 13.0129C21.0409 13.0269 21.0749 13.0333 21.109 13.0315Z"
            fill="#263238" />
        <path
            d="M13.302 13.2103C13.3363 13.2056 13.3689 13.1927 13.397 13.1726C13.4252 13.1525 13.448 13.1258 13.4636 13.0949C13.5739 12.8452 13.7417 12.6252 13.9533 12.4527C14.1649 12.2802 14.4142 12.1602 14.6811 12.1025C14.7094 12.0999 14.7368 12.0913 14.7616 12.0773C14.7863 12.0633 14.8078 12.0442 14.8247 12.0214C14.8416 11.9985 14.8535 11.9723 14.8595 11.9445C14.8656 11.9167 14.8657 11.888 14.8599 11.8602C14.85 11.8046 14.8196 11.7548 14.7748 11.7206C14.7299 11.6864 14.6738 11.6703 14.6176 11.6755C14.2812 11.7419 13.9654 11.8875 13.6965 12.1002C13.4276 12.3129 13.2133 12.5867 13.0712 12.8988C13.047 12.9502 13.0437 13.009 13.062 13.0628C13.0803 13.1167 13.1188 13.1613 13.1693 13.1873C13.2108 13.2065 13.2565 13.2145 13.302 13.2103Z"
            fill="#263238" />
        <path
            d="M34.2818 33.0708C34.9858 34.5537 35.5743 35.9558 36.1513 37.3983C36.7283 38.8408 37.2418 40.3122 37.7553 41.7835C38.7629 44.7823 39.5763 47.8429 40.1903 50.9463C40.323 51.7483 40.473 52.5331 40.5711 53.3582L40.6461 53.9698L40.6865 54.2756V54.4314V54.6449C40.7441 55.2416 40.7441 55.8426 40.6865 56.4393C40.5531 57.7452 40.1036 58.9988 39.3767 60.0918C38.6956 61.0928 37.8009 61.9303 36.7571 62.544C35.8876 63.0548 34.9517 63.4431 33.976 63.698C33.1074 63.9358 32.219 64.0942 31.3218 64.1712C29.6298 64.3312 27.9239 64.2633 26.25 63.9692C25.7959 63.893 25.3825 63.6614 25.0804 63.3139C24.7784 62.9665 24.6065 62.5248 24.5942 62.0646C24.5819 61.6044 24.73 61.1542 25.0131 60.7911C25.2962 60.4281 25.6968 60.1747 26.1461 60.0745L26.3538 60.0283C26.9308 59.8956 27.6867 59.734 28.3329 59.5609C28.9792 59.3878 29.6369 59.1859 30.2486 58.9839C31.3165 58.6419 32.3066 58.0929 33.1624 57.3683C33.3886 57.1586 33.5609 56.8973 33.6644 56.6067C33.7053 56.4029 33.7053 56.1931 33.6644 55.9893C33.6449 55.8338 33.616 55.6797 33.5779 55.5277L33.3701 54.5872C33.2374 53.9294 33.047 53.2485 32.8739 52.5792C32.5162 51.2233 32.1123 49.8673 31.6507 48.5056C31.1891 47.1439 30.7159 45.7879 30.2139 44.432C29.712 43.076 29.1811 41.7201 28.6445 40.393C28.1079 39.0659 27.5424 37.6695 27.0058 36.4059V36.3482C26.5743 35.3856 26.5428 34.2911 26.9183 33.3053C27.2938 32.3195 28.0455 31.5233 29.008 31.0917C29.9706 30.6602 31.0651 30.6287 32.0509 31.0042C33.0367 31.3796 33.833 32.1313 34.2645 33.0939L34.2818 33.0708Z"
            fill="#263238" />
    </g>
    <defs>
        <clipPath id="clip0_470_3343">
            <rect x="0.5" width="40" height="40" rx="20" fill="white" />
        </clipPath>
    </defs>
</svg>